<?xml version="1.0" encoding="UTF-8" standalone="no"?>
<!DOCTYPE svg PUBLIC "-//W3C//DTD SVG 1.1//EN" "http://www.w3.org/Graphics/SVG/1.1/DTD/svg11.dtd">
<svg version="1.1" xmlns="http://www.w3.org/2000/svg" xmlns:xlink="http://www.w3.org/1999/xlink" preserveAspectRatio="xMidYMid meet" viewBox="0 0 640 124" width="640" height="124"><defs><path d="M119.47 124.13L119.47 0.87L0.52 0.87L0.52 124.13L119.47 124.13ZM108.86 11.68L108.86 113.13L10.98 113.13L10.98 11.68L108.86 11.68Z" id="aRZRDYclt"></path><path d="M96.12 84.26C96.12 84.26 96.12 84.26 96.12 84.26C96.12 92.96 96.12 97.8 96.12 98.76C96.12 98.76 96.12 98.76 96.12 98.76C52.6 98.76 28.43 98.76 23.59 98.76C23.59 98.76 23.59 98.76 23.59 98.76C23.59 90.06 23.59 85.23 23.59 84.26C23.59 84.26 23.59 84.26 23.59 84.26C67.11 84.26 91.28 84.26 96.12 84.26Z" id="b2cNmqko5"></path><path d="M95.17 55.26C95.17 55.26 95.17 55.26 95.17 55.26C95.17 63.96 95.17 68.79 95.17 69.76C95.17 69.76 95.17 69.76 95.17 69.76C86.46 69.76 81.63 69.76 80.66 69.76C80.66 69.76 80.66 69.76 80.66 69.76C80.66 61.06 80.66 56.23 80.66 55.26C80.66 55.26 80.66 55.26 80.66 55.26C89.36 55.26 94.2 55.26 95.17 55.26Z" id="a3TYdlYnq"></path><path d="M39.05 55.26C39.05 55.26 39.05 55.26 39.05 55.26C39.05 63.96 39.05 68.79 39.05 69.76C39.05 69.76 39.05 69.76 39.05 69.76C30.35 69.76 25.52 69.76 24.55 69.76C24.55 69.76 24.55 69.76 24.55 69.76C24.55 61.06 24.55 56.23 24.55 55.26C24.55 55.26 24.55 55.26 24.55 55.26C33.25 55.26 38.08 55.26 39.05 55.26Z" id="a5BKW8UGUf"></path><path d="M95.17 26.24C95.17 26.24 95.17 26.24 95.17 26.24C95.17 34.94 95.17 39.77 95.17 40.74C95.17 40.74 95.17 40.74 95.17 40.74C86.46 40.74 81.63 40.74 80.66 40.74C80.66 40.74 80.66 40.74 80.66 40.74C80.66 32.04 80.66 27.2 80.66 26.24C80.66 26.24 80.66 26.24 80.66 26.24C89.36 26.24 94.2 26.24 95.17 26.24Z" id="g48pARJPeg"></path><path d="M67.1 26.24C67.1 26.24 67.1 26.24 67.1 26.24C67.1 52.35 67.1 66.86 67.1 69.76C67.1 69.76 67.1 69.76 67.1 69.76C58.4 69.76 53.56 69.76 52.6 69.76C52.6 69.76 52.6 69.76 52.6 69.76C52.6 43.65 52.6 29.14 52.6 26.24C52.6 26.24 52.6 26.24 52.6 26.24C61.3 26.24 66.13 26.24 67.1 26.24Z" id="d1WERZu8gj"></path><path d="M39.05 26.24C39.05 26.24 39.05 26.24 39.05 26.24C39.05 34.94 39.05 39.77 39.05 40.74C39.05 40.74 39.05 40.74 39.05 40.74C30.35 40.74 25.52 40.74 24.55 40.74C24.55 40.74 24.55 40.74 24.55 40.74C24.55 32.04 24.55 27.2 24.55 26.24C24.55 26.24 24.55 26.24 24.55 26.24C33.25 26.24 38.08 26.24 39.05 26.24Z" id="gN7DIy9"></path><path d="M185.2 68.97L178.84 68.97L178.84 91.52L167.58 91.52L167.58 30.15L206.74 30.15L206.74 68.97L197.83 68.97L206.82 91.52L194.11 91.52L185.2 68.97ZM195.36 57.86L195.36 41.41L178.84 41.41L178.84 57.86L195.36 57.86Z" id="g6rW9tyPIr"></path><path d="M218.94 30.15L258.1 30.15L258.1 41.41L230.13 41.41L230.13 53.54L257 53.54L257 64.46L230.13 64.46L230.13 80.31L258.27 80.31L258.27 91.5L218.94 91.5L218.94 30.15Z" id="a7DwqJu31"></path><path d="M270.3 91.52L270.3 30.15L298.86 30.15L315.04 59.73L315.04 62.18L298.86 91.52L270.3 91.52ZM281.49 41.43L281.49 80.33L291.84 80.33L302.6 61.17L291.48 41.43L281.49 41.43Z" id="kzsKeX1L5"></path><path d="M336.58 91.5L325.39 91.5L325.39 30.15L336.58 30.15L350.56 59.06L364.53 30.15L375.72 30.15L375.72 91.5L364.53 91.5L364.53 54.98L352.5 79.64L348.61 79.64L336.58 54.98L336.58 91.5Z" id="a2PA69pgZR"></path><path d="M387.94 30.15L427.1 30.15L427.1 41.41L399.13 41.41L399.13 53.54L426 53.54L426 64.46L399.13 64.46L399.13 80.31L427.27 80.31L427.27 91.5L387.94 91.5L387.94 30.15Z" id="e1ni6snGuw"></path><path d="M439.3 91.52L439.3 30.15L467.86 30.15L484.04 59.73L484.04 62.18L467.86 91.52L439.3 91.52ZM450.49 41.43L450.49 80.33L460.84 80.33L471.6 61.17L460.48 41.43L450.49 41.43Z" id="bbfZK18sEw"></path><path d="M505.65 91.52L494.39 91.52L494.39 30.15L505.65 30.15L505.65 75.75L522.1 59.23L522.1 30.15L533.46 30.15L533.46 63.72L505.65 91.52Z" id="h16uhEN8Wd"></path><path d="M543.88 30.15L583.04 30.15L583.04 41.41L555.07 41.41L555.07 53.54L581.94 53.54L581.94 64.46L555.07 64.46L555.07 80.31L583.21 80.31L583.21 91.5L543.88 91.5L543.88 30.15Z" id="cQ70FUA48"></path><path d="M595.26 91.52L595.26 30.15L623.81 30.15L640 59.73L640 62.18L623.81 91.52L595.26 91.52ZM606.45 41.43L606.45 80.33L616.8 80.33L627.56 61.17L616.44 41.43L606.45 41.43Z" id="a4sJtBaHB0"></path></defs><g><g><g><use xlink:href="#aRZRDYclt" opacity="1" fill="#c20000" fill-opacity="1"></use><g><use xlink:href="#aRZRDYclt" opacity="1" fill-opacity="0" stroke="#c20000" stroke-width="1" stroke-opacity="1"></use></g></g><g><use xlink:href="#b2cNmqko5" opacity="1" fill="#c20000" fill-opacity="1"></use><g><use xlink:href="#b2cNmqko5" opacity="1" fill-opacity="0" stroke="#c20000" stroke-width="1" stroke-opacity="1"></use></g></g><g><use xlink:href="#a3TYdlYnq" opacity="1" fill="#c20000" fill-opacity="1"></use><g><use xlink:href="#a3TYdlYnq" opacity="1" fill-opacity="0" stroke="#c20000" stroke-width="1" stroke-opacity="1"></use></g></g><g><use xlink:href="#a5BKW8UGUf" opacity="1" fill="#c20000" fill-opacity="1"></use><g><use xlink:href="#a5BKW8UGUf" opacity="1" fill-opacity="0" stroke="#c20000" stroke-width="1" stroke-opacity="1"></use></g></g><g><use xlink:href="#g48pARJPeg" opacity="1" fill="#c20000" fill-opacity="1"></use><g><use xlink:href="#g48pARJPeg" opacity="1" fill-opacity="0" stroke="#c20000" stroke-width="1" stroke-opacity="1"></use></g></g><g><use xlink:href="#d1WERZu8gj" opacity="1" fill="#c20000" fill-opacity="1"></use><g><use xlink:href="#d1WERZu8gj" opacity="1" fill-opacity="0" stroke="#c20000" stroke-width="1" stroke-opacity="1"></use></g></g><g><use xlink:href="#gN7DIy9" opacity="1" fill="#c20000" fill-opacity="1"></use><g><use xlink:href="#gN7DIy9" opacity="1" fill-opacity="0" stroke="#c20000" stroke-width="1" stroke-opacity="1"></use></g></g><g><use xlink:href="#g6rW9tyPIr" opacity="1" fill="#c20000" fill-opacity="1"></use><g><use xlink:href="#g6rW9tyPIr" opacity="1" fill-opacity="0" stroke="#c20000" stroke-width="1" stroke-opacity="1"></use></g></g><g><use xlink:href="#a7DwqJu31" opacity="1" fill="#c20000" fill-opacity="1"></use><g><use xlink:href="#a7DwqJu31" opacity="1" fill-opacity="0" stroke="#c20000" stroke-width="1" stroke-opacity="1"></use></g></g><g><use xlink:href="#kzsKeX1L5" opacity="1" fill="#c20000" fill-opacity="1"></use><g><use xlink:href="#kzsKeX1L5" opacity="1" fill-opacity="0" stroke="#c20000" stroke-width="1" stroke-opacity="1"></use></g></g><g><use xlink:href="#a2PA69pgZR" opacity="1" fill="#c20000" fill-opacity="1"></use><g><use xlink:href="#a2PA69pgZR" opacity="1" fill-opacity="0" stroke="#c20000" stroke-width="1" stroke-opacity="1"></use></g></g><g><use xlink:href="#e1ni6snGuw" opacity="1" fill="#c20000" fill-opacity="1"></use><g><use xlink:href="#e1ni6snGuw" opacity="1" fill-opacity="0" stroke="#c20000" stroke-width="1" stroke-opacity="1"></use></g></g><g><use xlink:href="#bbfZK18sEw" opacity="1" fill="#c20000" fill-opacity="1"></use><g><use xlink:href="#bbfZK18sEw" opacity="1" fill-opacity="0" stroke="#c20000" stroke-width="1" stroke-opacity="1"></use></g></g><g><use xlink:href="#h16uhEN8Wd" opacity="1" fill="#c20000" fill-opacity="1"></use><g><use xlink:href="#h16uhEN8Wd" opacity="1" fill-opacity="0" stroke="#c20000" stroke-width="1" stroke-opacity="1"></use></g></g><g><use xlink:href="#cQ70FUA48" opacity="1" fill="#c20000" fill-opacity="1"></use><g><use xlink:href="#cQ70FUA48" opacity="1" fill-opacity="0" stroke="#c20000" stroke-width="1" stroke-opacity="1"></use></g></g><g><use xlink:href="#a4sJtBaHB0" opacity="1" fill="#c20000" fill-opacity="1"></use><g><use xlink:href="#a4sJtBaHB0" opacity="1" fill-opacity="0" stroke="#c20000" stroke-width="1" stroke-opacity="1"></use></g></g></g></g></svg>